<?xml version="1.0" encoding="UTF-8"?>
<svg width="700pt" height="700pt" version="1.1" viewBox="0 0 700 700" xmlns="http://www.w3.org/2000/svg" xmlns:xlink="http://www.w3.org/1999/xlink">
 <defs>
  <symbol id="g" overflow="visible">
   <path d="m1.875-0.10938c-0.09375 0.054688-0.19531 0.089844-0.29688 0.10938-0.10547 0.03125-0.21484 0.046875-0.32812 0.046875-0.34375 0-0.61719-0.09375-0.8125-0.28125-0.19922-0.19531-0.29688-0.45703-0.29688-0.78125 0-0.32031 0.097656-0.57812 0.29688-0.76562 0.19531-0.19531 0.46875-0.29688 0.8125-0.29688 0.11328 0 0.22266 0.015625 0.32812 0.046875 0.10156 0.023438 0.20312 0.058594 0.29688 0.10938v0.42188c-0.09375-0.070312-0.19531-0.11719-0.29688-0.14062-0.09375-0.03125-0.19531-0.046875-0.29688-0.046875-0.1875 0-0.33594 0.0625-0.4375 0.1875-0.10547 0.11719-0.15625 0.27734-0.15625 0.48438 0 0.21094 0.050781 0.375 0.15625 0.5 0.10156 0.11719 0.25 0.17188 0.4375 0.17188 0.10156 0 0.20312-0.015625 0.29688-0.046875 0.10156-0.03125 0.20312-0.078125 0.29688-0.14062z"/>
  </symbol>
  <symbol id="a" overflow="visible">
   <path d="m1.375-1.1094c-0.042969-0.019531-0.085938-0.035156-0.125-0.046875-0.042969-0.007812-0.089844-0.015625-0.14062-0.015625-0.125 0-0.22656 0.042969-0.29688 0.125-0.0625 0.074219-0.09375 0.1875-0.09375 0.34375v0.70312h-0.48438v-1.5312h0.48438v0.25c0.0625-0.09375 0.13281-0.16016 0.21875-0.20312 0.082031-0.050781 0.17969-0.078125 0.29688-0.078125h0.046875 0.09375z"/>
  </symbol>
  <symbol id="b" overflow="visible">
   <path d="m1.7656-0.76562v0.14062h-1.1406c0.007812 0.11719 0.046875 0.20312 0.10938 0.26562 0.070313 0.054687 0.17578 0.078125 0.3125 0.078125 0.09375 0 0.19141-0.015625 0.29688-0.046875 0.11328-0.03125 0.22656-0.078125 0.34375-0.14062v0.375c-0.11719 0.042969-0.23047 0.074219-0.34375 0.09375-0.11719 0.03125-0.23047 0.046875-0.34375 0.046875-0.28125 0-0.5-0.066406-0.65625-0.20312-0.14844-0.14453-0.21875-0.34766-0.21875-0.60938 0-0.25 0.070312-0.44141 0.21875-0.57812 0.15625-0.14453 0.36328-0.21875 0.625-0.21875 0.23828 0 0.42969 0.074219 0.57812 0.21875 0.14453 0.14844 0.21875 0.33984 0.21875 0.57812zm-0.5-0.17188c0-0.09375-0.03125-0.16406-0.09375-0.21875-0.054687-0.050781-0.12109-0.078125-0.20312-0.078125-0.09375 0-0.17188 0.027344-0.23438 0.078125-0.0625 0.054688-0.10156 0.125-0.10938 0.21875z"/>
  </symbol>
  <symbol id="c" overflow="visible">
   <path d="m0.92188-0.6875c-0.10547 0-0.18359 0.023438-0.23438 0.0625-0.054688 0.03125-0.078125 0.078125-0.078125 0.14062s0.019531 0.11719 0.0625 0.15625c0.039063 0.03125 0.097656 0.046875 0.17188 0.046875 0.09375 0 0.17188-0.03125 0.23438-0.09375 0.0625-0.070312 0.09375-0.15625 0.09375-0.25v-0.0625zm0.75-0.1875v0.875h-0.5v-0.23438c-0.0625 0.09375-0.13672 0.16797-0.21875 0.21875-0.085937 0.039062-0.18359 0.0625-0.29688 0.0625-0.15625 0-0.28906-0.046875-0.39062-0.14062-0.09375-0.09375-0.14062-0.21094-0.14062-0.35938 0-0.1875 0.054688-0.32031 0.17188-0.40625 0.125-0.082031 0.32031-0.125 0.59375-0.125h0.28125v-0.03125c0-0.082031-0.03125-0.14062-0.09375-0.17188s-0.15625-0.046875-0.28125-0.046875c-0.10547 0-0.20312 0.011719-0.29688 0.03125-0.085938 0.023437-0.16797 0.054687-0.25 0.09375v-0.375c0.10156-0.03125 0.20703-0.050781 0.3125-0.0625 0.11328-0.007813 0.22266-0.015625 0.32812-0.015625 0.26953 0 0.46875 0.058594 0.59375 0.17188 0.125 0.10547 0.1875 0.27734 0.1875 0.51562z"/>
  </symbol>
  <symbol id="e" overflow="visible">
   <path d="m0.76562-1.9688v0.4375h0.5v0.34375h-0.5v0.65625c0 0.074219 0.015625 0.125 0.046875 0.15625 0.03125 0.023438 0.085938 0.03125 0.17188 0.03125h0.25v0.34375h-0.42188c-0.19922 0-0.33984-0.035156-0.42188-0.10938-0.074219-0.082031-0.10938-0.22266-0.10938-0.42188v-0.65625h-0.25v-0.34375h0.25v-0.4375z"/>
  </symbol>
  <symbol id="j" overflow="visible">
   <path d="m1.2812-1.3125v-0.8125h0.48438v2.125h-0.48438v-0.21875c-0.074219 0.085938-0.15234 0.15234-0.23438 0.20312-0.074219 0.039062-0.16797 0.0625-0.28125 0.0625-0.1875 0-0.34375-0.070312-0.46875-0.21875-0.11719-0.15625-0.17188-0.35156-0.17188-0.59375 0-0.22656 0.054688-0.41406 0.17188-0.5625 0.125-0.15625 0.28125-0.23438 0.46875-0.23438 0.11328 0 0.20703 0.023438 0.28125 0.0625 0.082031 0.042969 0.16016 0.10547 0.23438 0.1875zm-0.32812 1c0.10156 0 0.17969-0.035156 0.23438-0.10938 0.0625-0.082031 0.09375-0.19531 0.09375-0.34375 0-0.14453-0.03125-0.25391-0.09375-0.32812-0.054688-0.082031-0.13281-0.125-0.23438-0.125-0.10547 0-0.1875 0.042969-0.25 0.125-0.054687 0.074219-0.078125 0.18359-0.078125 0.32812 0 0.14844 0.023438 0.26172 0.078125 0.34375 0.0625 0.074219 0.14453 0.10938 0.25 0.10938z"/>
  </symbol>
  <symbol id="f" overflow="visible">
   <path d="m1.0469-0.3125c0.10156 0 0.17969-0.035156 0.23438-0.10938 0.0625-0.082031 0.09375-0.19531 0.09375-0.34375 0-0.14453-0.03125-0.25391-0.09375-0.32812-0.054688-0.082031-0.13281-0.125-0.23438-0.125-0.10547 0-0.1875 0.042969-0.25 0.125-0.054687 0.074219-0.078125 0.18359-0.078125 0.32812 0 0.14844 0.023438 0.26172 0.078125 0.34375 0.0625 0.074219 0.14453 0.10938 0.25 0.10938zm-0.32812-1c0.070312-0.082031 0.14844-0.14453 0.23438-0.1875 0.082031-0.039062 0.17578-0.0625 0.28125-0.0625 0.1875 0 0.33594 0.078125 0.45312 0.23438 0.125 0.14844 0.1875 0.33594 0.1875 0.5625 0 0.24219-0.0625 0.4375-0.1875 0.59375-0.11719 0.14844-0.26562 0.21875-0.45312 0.21875-0.10547 0-0.19922-0.023438-0.28125-0.0625-0.085937-0.050781-0.16406-0.11719-0.23438-0.20312v0.21875h-0.48438v-2.125h0.48438z"/>
  </symbol>
  <symbol id="i" overflow="visible">
   <path d="m0.03125-1.5312h0.48438l0.42188 1.0469 0.34375-1.0469h0.48438l-0.64062 1.6719c-0.0625 0.17578-0.13672 0.29688-0.21875 0.35938-0.085938 0.070312-0.19922 0.10938-0.34375 0.10938h-0.28125v-0.32812h0.15625c0.082031 0 0.14062-0.015625 0.17188-0.046875 0.039063-0.023437 0.070313-0.070313 0.09375-0.14062l0.015625-0.03125z"/>
  </symbol>
  <symbol id="h" overflow="visible">
   <path d="m1.5-0.375h-0.82812l-0.125 0.375h-0.53125l0.75-2.0312h0.625l0.76562 2.0312h-0.53125zm-0.70312-0.375h0.5625l-0.28125-0.8125z"/>
  </symbol>
  <symbol id="u" overflow="visible">
   <path d="m0.23438-2.125h0.48438v2.125h-0.48438z"/>
  </symbol>
  <symbol id="t" overflow="visible">
   <path d="m0.046875-1.5312h0.48438l0.375 1.0625 0.39062-1.0625h0.48438l-0.59375 1.5312h-0.54688z"/>
  </symbol>
  <symbol id="d" overflow="visible">
   <path d="m0.96875-1.2188c-0.11719 0-0.20312 0.042969-0.26562 0.125-0.054687 0.074219-0.078125 0.18359-0.078125 0.32812 0 0.14844 0.023438 0.26172 0.078125 0.34375 0.0625 0.074219 0.14844 0.10938 0.26562 0.10938 0.10156 0 0.17969-0.035156 0.23438-0.10938 0.0625-0.082031 0.09375-0.19531 0.09375-0.34375 0-0.14453-0.03125-0.25391-0.09375-0.32812-0.054687-0.082031-0.13281-0.125-0.23438-0.125zm0-0.34375c0.25781 0 0.46094 0.074219 0.60938 0.21875 0.14453 0.13672 0.21875 0.32812 0.21875 0.57812s-0.074219 0.44922-0.21875 0.59375c-0.14844 0.14844-0.35156 0.21875-0.60938 0.21875-0.27344 0-0.48047-0.070312-0.625-0.21875-0.14844-0.14453-0.21875-0.34375-0.21875-0.59375s0.070312-0.44141 0.21875-0.57812c0.14453-0.14453 0.35156-0.21875 0.625-0.21875z"/>
  </symbol>
  <symbol id="s" overflow="visible">
   <path d="m1.2344-2.125v0.32812h-0.26562c-0.0625 0-0.10938 0.011719-0.14062 0.03125-0.03125 0.023437-0.046875 0.0625-0.046875 0.125v0.10938h0.42188v0.34375h-0.42188v1.1875h-0.48438v-1.1875h-0.25v-0.34375h0.25v-0.10938c0-0.16406 0.046875-0.28516 0.14062-0.35938 0.09375-0.082031 0.23828-0.125 0.4375-0.125z"/>
  </symbol>
  <symbol id="r" overflow="visible">
   <path d="m1.6562-1.2812c0.0625-0.09375 0.13281-0.16016 0.21875-0.20312 0.082031-0.050781 0.17578-0.078125 0.28125-0.078125 0.17578 0 0.30469 0.058594 0.39062 0.17188 0.09375 0.10547 0.14062 0.25781 0.14062 0.45312v0.9375h-0.48438v-0.79688-0.03125-0.0625c0-0.10156-0.015625-0.17969-0.046875-0.23438-0.03125-0.050781-0.085938-0.078125-0.15625-0.078125-0.09375 0-0.16797 0.042969-0.21875 0.125-0.042969 0.074219-0.070312 0.18359-0.078125 0.32812v0.75h-0.48438v-0.79688c0-0.16406-0.015625-0.27344-0.046875-0.32812-0.03125-0.050781-0.085937-0.078125-0.15625-0.078125-0.09375 0-0.16797 0.042969-0.21875 0.125-0.054687 0.074219-0.078125 0.18359-0.078125 0.32812v0.75h-0.48438v-1.5312h0.48438v0.21875c0.0625-0.082031 0.12891-0.14453 0.20312-0.1875 0.082031-0.039062 0.17188-0.0625 0.26562-0.0625 0.10156 0 0.19531 0.027344 0.28125 0.078125 0.082031 0.054687 0.14453 0.12109 0.1875 0.20312z"/>
  </symbol>
  <symbol id="q" overflow="visible">
   <path d="m1.7656-0.9375v0.9375h-0.48438v-0.70312c0-0.13281-0.007812-0.22656-0.015625-0.28125 0-0.050781-0.011719-0.085937-0.03125-0.10938-0.011719-0.03125-0.039063-0.054688-0.078125-0.078125-0.03125-0.019531-0.070312-0.03125-0.10938-0.03125-0.09375 0-0.17188 0.042969-0.23438 0.125-0.0625 0.074219-0.09375 0.18359-0.09375 0.32812v0.75h-0.48438v-2.125h0.48438v0.8125c0.070312-0.082031 0.14844-0.14453 0.23438-0.1875 0.082031-0.039062 0.17578-0.0625 0.28125-0.0625 0.17578 0 0.30469 0.058594 0.39062 0.17188 0.09375 0.10547 0.14062 0.25781 0.14062 0.45312z"/>
  </symbol>
  <symbol id="p" overflow="visible">
   <path d="m0.25-2.0312h0.59375l0.73438 1.3906v-1.3906h0.5v2.0312h-0.57812l-0.75-1.4062v1.4062h-0.5z"/>
  </symbol>
  <symbol id="o" overflow="visible">
   <path d="m0.21875-0.59375v-0.9375h0.48438v0.15625 0.3125 0.25 0.26562c0.007813 0.054687 0.023437 0.089844 0.046875 0.10938 0.019531 0.042969 0.046875 0.074219 0.078125 0.09375 0.03125 0.011719 0.066406 0.015625 0.10938 0.015625 0.10156 0 0.17969-0.035156 0.23438-0.10938 0.0625-0.082031 0.09375-0.19531 0.09375-0.34375v-0.75h0.48438v1.5312h-0.48438v-0.21875c-0.074219 0.085938-0.15234 0.15234-0.23438 0.20312-0.085938 0.039062-0.17188 0.0625-0.26562 0.0625-0.17969 0-0.3125-0.050781-0.40625-0.15625-0.09375-0.11328-0.14062-0.27344-0.14062-0.48438z"/>
  </symbol>
  <symbol id="n" overflow="visible">
   <path d="m1.7656-0.9375v0.9375h-0.48438v-0.71875c0-0.125-0.007812-0.21094-0.015625-0.26562 0-0.050781-0.011719-0.085937-0.03125-0.10938-0.011719-0.03125-0.039063-0.054688-0.078125-0.078125-0.03125-0.019531-0.070312-0.03125-0.10938-0.03125-0.09375 0-0.17188 0.042969-0.23438 0.125-0.0625 0.074219-0.09375 0.18359-0.09375 0.32812v0.75h-0.48438v-1.5312h0.48438v0.21875c0.070312-0.082031 0.14844-0.14453 0.23438-0.1875 0.082031-0.039062 0.17578-0.0625 0.28125-0.0625 0.17578 0 0.30469 0.058594 0.39062 0.17188 0.09375 0.10547 0.14062 0.25781 0.14062 0.45312z"/>
  </symbol>
  <symbol id="m" overflow="visible">
   <path d="m0.25-2.0312h0.875c0.25781 0 0.45703 0.058594 0.59375 0.17188 0.14453 0.11719 0.21875 0.27734 0.21875 0.48438 0 0.21875-0.074219 0.38672-0.21875 0.5-0.13672 0.11719-0.33594 0.17188-0.59375 0.17188h-0.34375v0.70312h-0.53125zm0.53125 0.375v0.5625h0.29688c0.09375 0 0.16406-0.019531 0.21875-0.0625 0.0625-0.050781 0.09375-0.125 0.09375-0.21875s-0.03125-0.16016-0.09375-0.20312c-0.054687-0.050781-0.125-0.078125-0.21875-0.078125z"/>
  </symbol>
  <symbol id="l" overflow="visible">
   <path d="m0.23438-1.5312h0.48438v1.5c0 0.20703-0.054688 0.36328-0.15625 0.46875-0.09375 0.11328-0.23047 0.17188-0.40625 0.17188h-0.25v-0.32812h0.078125c0.09375 0 0.15625-0.023438 0.1875-0.0625 0.039063-0.042969 0.0625-0.125 0.0625-0.25zm0-0.59375h0.48438v0.40625h-0.48438z"/>
  </symbol>
  <symbol id="k" overflow="visible">
   <path d="m1.4688-1.4844v0.40625c-0.0625-0.050781-0.13281-0.085937-0.20312-0.10938-0.0625-0.019531-0.13281-0.03125-0.20312-0.03125-0.13672 0-0.24609 0.042969-0.32812 0.125-0.074219 0.074219-0.10938 0.18359-0.10938 0.32812 0 0.14844 0.035156 0.26172 0.10938 0.34375 0.082031 0.074219 0.19141 0.10938 0.32812 0.10938 0.070312 0 0.14453-0.007812 0.21875-0.03125 0.070312-0.019531 0.13281-0.050781 0.1875-0.09375v0.39062c-0.074219 0.03125-0.15234 0.050781-0.23438 0.0625-0.074219 0.019531-0.15234 0.03125-0.23438 0.03125-0.27344 0-0.48438-0.070312-0.64062-0.21875-0.15625-0.14453-0.23438-0.34375-0.23438-0.59375s0.078125-0.44141 0.23438-0.57812c0.15625-0.14453 0.36719-0.21875 0.64062-0.21875 0.082031 0 0.16016 0.007812 0.23438 0.015625 0.082031 0.011719 0.16016 0.03125 0.23438 0.0625z"/>
  </symbol>
 </defs>
 <g>
  <path d="m521.14 277.2c-0.55859-3.1367-1.3438-6.2148-2.8555-8.9609-2.4648-4.7031-24.359-45.922-89.879-13.328-0.89453-2.8008-3.5273-6.0469-7.168-6.7773-3.6406-1.3984-12.711 1.1211-15.902 4.5352-1.7344-1.2305-2.0703-4.1445-7.3359-5.4336-6.2148-1.0078-12.039 1.0078-16.465 5.4883-1.2891-2.4062-2.7422-4.0312-6.1602-4.8711-7.2227-3.0234-12.039 2.5742-17.641 5.0391-2.0703-3.7539-7.8398-7.4492-13.832-5.9375-14.391 4.7617-32.871 25.762-36.793 30.297l-115.3 0.007812c1.793-7.8945 6.2734-15.398 12.488-20.215 22.961-15.734 49.559-13.047 68.938-1.1211 3.3047 2.2969 6.2734 5.4336 10.137 6.9453-12.656-12.32-30.574-21.785-48.832-19.938-36.961 4.3125-43.902 26.602-45.305 34.383l-107.24 1.9609v0.28125l107.07 2.0156c0.67188 12.152 9.5195 24.023 19.824 29.734 25.312 12.266 53.535 4.9844 73.473-8.3984 1.7344 2.9688 3.1367 5.375 7.3359 6.8867 6.7188 2.1289 13.273-1.2305 18.199-5.3203 1.0625 2.1289 2.1289 3.4727 4.9297 4.5938 7 2.1289 14.336-0.054687 18.871-3.6953 1.5664 1.5117 2.9102 4.0312 6.2734 3.8086 6.9453 3.1914 15.008-1.9023 18.312-4.0898 2.6328 4.3125 7.3359 6.1055 12.207 4.9844 13.664-3.8633 32.145-23.969 36.23-28.617h114.02c-0.44922 5.4883-3.5859 19.543-23.688 27.664-22.512 5.8789-48.383 0.39062-64.961-16.129h-0.95312c13.664 15.902 32.312 23.297 53.258 22.176 14.336-0.72656 30.969-8.9609 36.457-23.352 1.9023-4.7617 2.5195-7.6172 2.6875-10.359l96.602-2.0156v-0.28125zm-260.23 32.09c-47.434 16.016-66.023-10.137-68.77-23.91-0.054687-1.0625-0.28125-2.6875-0.50391-3.9219h108.36c-0.89062 0.89453-21.109 21.109-39.086 27.832zm28-2.0742c-1.8477-1.3438-3.4727-2.4648-4.0898-4.5938l0.72656-1.8477c9.5742-5.1523 20.328-15.902 23.633-19.32h16.969c-1.1211 1.793-3.7539 3.4727-4.9844 4.8164-10.02 7.0586-17.859 23.02-32.254 20.945zm26.992 0.44922c-1.9023-0.054687-4.7031-0.61719-5.375-3.3047l0.054688-1.8477c7.9531-7.0547 16.465-15.176 23.688-21.055h15.848l-2.2383 2.3516c-5.3203 4.0312-17.918 23.297-31.977 23.855zm20.664-0.61719c-1.457-0.55859-2.6875-2.1836-2.6328-3.6406 7.2227-6.2734 21.449-20.273 23.184-21.953h16.465l-1.2305 1.1758c-11.312 8.8516-20.383 27.609-35.785 24.418zm52.195-16.016c-5.9375 6.5508-12.77 12.824-21.617 16.969-3.2461 1.1758-7.168-0.39062-9.2383-3.3594l0.054687-1.7344s18.762-17.359 22.848-21.391h16.184c-1.8477 2.0117-5.8789 6.8828-8.2305 9.5156zm53.871-37.352c25.594-11.984 57.398-14.223 73.863 17.023 0.72656 2.7422 1.2305 4.7617 1.457 6.4961h-107.18c8.2852-8.2305 18.59-17.137 31.863-23.52zm-23.578-3.8086c1.625-0.67188 5.1523 0.22266 6.6641 3.1914-0.16797 1.1758 1.1758 1.9023 0.89453 3.1914-8.9023 6.1055-19.824 17.754-22.793 21h-16.688l0.95312-1.2305c9.4648-8.2891 17.922-22.121 30.969-26.152zm-24.414-0.16797c3.2461-1.3984 5.8242 0.22266 7.7852 1.7344 1.457 1.625-0.054688 2.9102-1.0078 4.3672-7.7852 6.8867-14.559 14.559-21.895 21.391h-15.848c9.9062-10.133 18.141-21.387 30.965-27.492zm-22.176 0.058594c2.5742-0.33594 5.375 0.89453 7 2.9102l-0.054687 1.8477-23.41 22.68h-15.625l0.83984-1.457c9.6328-9.8555 25.199-27.156 31.25-25.98zm-56.395 25.98c10.414-7.9531 17.809-22.062 30.855-26.098 3.6406-0.33594 7 0.11328 8.625 3.1914l-0.054688 1.7344c-6.5508 6.8867-18.648 19.656-21.504 22.68h-19.152z" fill-rule="evenodd"/>
  <use x="70" y="568.398438" xlink:href="#g"/>
  <use x="72.054688" y="568.398438" xlink:href="#a"/>
  <use x="73.4375" y="568.398438" xlink:href="#b"/>
  <use x="75.335938" y="568.398438" xlink:href="#c"/>
  <use x="77.222656" y="568.398438" xlink:href="#e"/>
  <use x="78.5625" y="568.398438" xlink:href="#b"/>
  <use x="80.460938" y="568.398438" xlink:href="#j"/>
  <use x="83.441406" y="568.398438" xlink:href="#f"/>
  <use x="85.445312" y="568.398438" xlink:href="#i"/>
  <use x="88.246094" y="568.398438" xlink:href="#h"/>
  <use x="90.410156" y="568.398438" xlink:href="#u"/>
  <use x="91.371094" y="568.398438" xlink:href="#t"/>
  <use x="93.195312" y="568.398438" xlink:href="#c"/>
  <use x="95.085938" y="568.398438" xlink:href="#a"/>
  <use x="96.46875" y="568.398438" xlink:href="#d"/>
  <use x="99.367188" y="568.398438" xlink:href="#g"/>
  <use x="101.421875" y="568.398438" xlink:href="#c"/>
  <use x="103.308594" y="568.398438" xlink:href="#f"/>
  <use x="105.3125" y="568.398438" xlink:href="#a"/>
  <use x="106.695312" y="568.398438" xlink:href="#b"/>
  <use x="108.59375" y="568.398438" xlink:href="#a"/>
  <use x="109.976562" y="568.398438" xlink:href="#c"/>
  <use x="70" y="571.199219" xlink:href="#s"/>
  <use x="71.21875" y="571.199219" xlink:href="#a"/>
  <use x="72.597656" y="571.199219" xlink:href="#d"/>
  <use x="74.523438" y="571.199219" xlink:href="#r"/>
  <use x="78.414063" y="571.199219" xlink:href="#e"/>
  <use x="79.753906" y="571.199219" xlink:href="#q"/>
  <use x="81.746094" y="571.199219" xlink:href="#b"/>
  <use x="84.621094" y="571.199219" xlink:href="#p"/>
  <use x="86.964844" y="571.199219" xlink:href="#d"/>
  <use x="88.886719" y="571.199219" xlink:href="#o"/>
  <use x="90.882812" y="571.199219" xlink:href="#n"/>
  <use x="93.847656" y="571.199219" xlink:href="#m"/>
  <use x="95.902344" y="571.199219" xlink:href="#a"/>
  <use x="97.28125" y="571.199219" xlink:href="#d"/>
  <use x="99.207031" y="571.199219" xlink:href="#l"/>
  <use x="100.164062" y="571.199219" xlink:href="#b"/>
  <use x="102.066406" y="571.199219" xlink:href="#k"/>
  <use x="103.722656" y="571.199219" xlink:href="#e"/>
 </g>
</svg>
